<?xml version="1.0" encoding="iso-8859-1"?>
<!-- Generator: Adobe Illustrator 19.0.0, SVG Export Plug-In . SVG Version: 6.00 Build 0)  -->
<svg version="1.1" id="Layer_1" xmlns="http://www.w3.org/2000/svg" xmlns:xlink="http://www.w3.org/1999/xlink" x="0px" y="0px"
	 viewBox="0 0 489.993 489.993" style="enable-background:new 0 0 489.993 489.993;" xml:space="preserve">
<g id="XMLID_754_">
	<g id="XMLID_722_">
		<path style="fill:#9ED6F1;" d="M38.28,273.732v15.312h344.527v-19.14c0-95.138-77.125-172.263-172.263-172.263
			S38.281,174.766,38.281,269.904"/>
	</g>
	<g id="XMLID_735_">
		<path style="fill:#5EBAE7;" d="M45.937,273.732v15.312h260.309v-19.14c0-95.138-58.272-172.263-130.155-172.263
			S45.937,174.765,45.937,269.904"/>
	</g>
	<g id="XMLID_753_">
		<path style="fill:#9ED6F1;" d="M367.495,281.388h-15.312l-7.656-7.656v-61.249l-15.312-38.281l15.312-15.312
			c0,0,51.883,68.084,30.625,122.498H367.495z"/>
	</g>
	<g id="XMLID_703_">
		<rect x="38.281" y="419.199" style="fill:#9ED6F1;" width="344.527" height="53.593"/>
	</g>
	<g id="XMLID_644_">
		<rect x="38.281" y="419.199" style="fill:#5EBAE7;" width="76.562" height="53.593"/>
	</g>
	<g id="XMLID_621_">
		<rect x="38.281" y="281.388" style="fill:#89CC86;" width="344.527" height="137.811"/>
	</g>
	<g id="XMLID_623_">
		<rect x="38.281" y="281.388" style="fill:#3AAA35;" width="68.905" height="137.811"/>
	</g>
	<g id="XMLID_609_">
		<rect x="61.249" y="442.167" style="fill:#1D1D1B;" width="15.312" height="15.313"/>
	</g>
	<g id="XMLID_610_">
		<rect x="91.874" y="442.167" style="fill:#1D1D1B;" width="15.312" height="15.313"/>
	</g>
	<g id="XMLID_611_">
		<rect x="122.498" y="442.167" style="fill:#1D1D1B;" width="15.313" height="15.313"/>
	</g>
	<g id="XMLID_618_">
		<rect x="283.277" y="442.167" style="fill:#1D1D1B;" width="15.313" height="15.313"/>
	</g>
	<g id="XMLID_617_">
		<rect x="313.902" y="442.167" style="fill:#1D1D1B;" width="15.313" height="15.313"/>
	</g>
	<g id="XMLID_616_">
		<rect x="344.527" y="442.167" style="fill:#1D1D1B;" width="15.313" height="15.313"/>
	</g>
	<g id="XMLID_619_">
		<rect x="153.123" y="442.167" style="fill:#1D1D1B;" width="114.843" height="15.313"/>
	</g>
	<path style="fill:#1D1D1B;" d="M390.463,472.792V269.904c0-99.208-80.712-179.92-179.919-179.92
		c-99.208,0-179.92,80.712-179.92,179.92v202.888H0v15.313h30.624h359.839h99.53v-15.313L390.463,472.792L390.463,472.792z
		 M375.151,289.045v122.498H45.937V289.045H375.151z M375.151,269.904v3.828h-22.968v-30.625c0-39.433-14.986-75.255-39.557-102.24
		C350.69,171.043,375.151,217.669,375.151,269.904z M204.571,105.417c73.443,2.904,132.299,63.548,132.299,137.691v30.625H45.937
		v-3.828C45.937,181.14,116.564,108.573,204.571,105.417z M45.937,472.792v-45.936h329.214v45.936H45.937z"/>
	<g id="XMLID_622_">
		<rect x="68.905" y="243.107" style="fill:#FFFFFF;" width="252.653" height="15.313"/>
	</g>
	<g id="XMLID_595_">
		<g id="XMLID_543_">
			
				<rect x="340.584" y="70.954" transform="matrix(-0.7071 -0.7071 0.7071 -0.7071 593.4189 433.6465)" style="fill:#3AAA35;" width="91.873" height="45.937"/>
		</g>
		<g id="XMLID_516_">
			
				<rect x="362.703" y="45.006" transform="matrix(-0.7071 -0.7071 0.7071 -0.7071 665.3032 403.8695)" style="fill:#89CC86;" width="107.185" height="38.281"/>
		</g>
		<g id="XMLID_306_">
			<polygon style="fill:#89CC86;" points="329.214,174.202 321.558,137.235 359.454,99.339 381.109,120.994 			"/>
		</g>
		<g id="XMLID_305_">
			<path style="fill:#1D1D1B;" d="M478.555,88.512l-86.619-86.62L354.04,39.787l5.414,5.414l-32.482,32.482l21.575,21.575
				l-43.999,42.731l22.632,45.264l53.997-55.364l21.587,21.587l32.482-32.482l5.414,5.414L478.555,88.512z M331.249,161.151
				l-7.993-15.986l36.12-35.077l10.974,10.974L331.249,161.151z M391.936,23.547l64.965,64.965l-16.241,16.241l-64.965-64.965
				L391.936,23.547z M402.764,131.821l-54.138-54.138l21.655-21.654l54.137,54.137L402.764,131.821z"/>
			<g id="XMLID_308_">
				
					<rect x="406.67" y="29.421" transform="matrix(-0.7071 -0.7071 0.7071 -0.7071 739.8951 380.6292)" style="fill:#1D1D1B;" width="84.217" height="15.313"/>
			</g>
		</g>
	</g>
</g>
<g>
</g>
<g>
</g>
<g>
</g>
<g>
</g>
<g>
</g>
<g>
</g>
<g>
</g>
<g>
</g>
<g>
</g>
<g>
</g>
<g>
</g>
<g>
</g>
<g>
</g>
<g>
</g>
<g>
</g>
</svg>
