<?xml version="1.0" encoding="iso-8859-1"?>
<!-- Generator: Adobe Illustrator 19.0.0, SVG Export Plug-In . SVG Version: 6.00 Build 0)  -->
<svg version="1.1" id="Layer_1" xmlns="http://www.w3.org/2000/svg" xmlns:xlink="http://www.w3.org/1999/xlink" x="0px" y="0px"
	 viewBox="0 0 423.662 423.662" style="enable-background:new 0 0 423.662 423.662;" xml:space="preserve">
<g>
	<path style="fill:#E6E6E6;" d="M274.255,259.401l21.51,21.51c-3.21,1.39-6.22,3.39-8.84,6.01s-4.63,5.63-6.01,8.84l-21.51-21.5
		c2.62-2.29,5.18-4.69,7.67-7.18C269.575,264.581,271.965,262.021,274.255,259.401z"/>
	<path style="fill:#666666;" d="M415.315,415.321c-11.13,11.12-29.17,11.12-40.3,0l-88.09-88.09c-8.51-8.51-10.51-21.06-6.01-31.47
		c1.38-3.21,3.39-6.22,6.01-8.84s5.63-4.62,8.84-6.01c3.6-1.56,7.45-2.34,11.31-2.34c7.29,0,14.58,2.79,20.15,8.35l88.09,88.09
		C426.445,386.141,426.445,404.191,415.315,415.321z"/>
	<path style="fill:#AFDAF9;" d="M289.915,156.421c0,21.88-5.26,42.53-14.59,60.75l-60.16-72.71l-70.4,82.94l-48.81-58.98
		l-50.93,61.57h-0.01c-13.96-21.09-22.09-46.38-22.09-73.57c0-73.73,59.77-133.49,133.5-133.49
		C230.145,22.931,289.915,82.691,289.915,156.421z M135.245,93.921c0-11.41-9.25-20.65-20.65-20.65c-11.41,0-20.65,9.24-20.65,20.65
		c0,11.4,9.24,20.65,20.65,20.65C125.995,114.571,135.245,105.321,135.245,93.921z"/>
	<path style="fill:#F7E88B;" d="M144.765,227.401l70.4-82.94l60.16,72.71c-22.11,43.19-67.06,72.74-118.9,72.74
		c-19.52,0-38.06-4.19-54.77-11.72L144.765,227.401z"/>
	<path style="opacity:0.51;fill:#F2F2F2;enable-background:new    ;" d="M266.895,156.421c0,4.14-3.36,7.5-7.5,7.5
		c-4.15,0-7.5-3.36-7.5-7.5c0-31.76-15.74-61.36-42.1-79.17c-3.43-2.32-4.34-6.98-2.02-10.41c2.32-3.43,6.98-4.34,10.42-2.02
		C248.685,85.421,266.895,119.671,266.895,156.421z"/>
	<path style="opacity:0.51;fill:#F2F2F2;enable-background:new    ;" d="M183.295,49.251c4.02,1,6.47,5.07,5.46,9.09
		c-0.85,3.41-3.91,5.68-7.27,5.68c-0.6,0-1.21-0.07-1.82-0.22c-7.56-1.89-15.38-2.85-23.24-2.85c-4.15,0-7.5-3.36-7.5-7.5
		s3.35-7.5,7.5-7.5C165.515,45.951,174.555,47.061,183.295,49.251z"/>
	<path style="fill:#DDCA6C;" d="M95.955,168.421l48.81,58.98l-43.11,50.79c-23.14-10.41-42.77-27.23-56.64-48.2h0.01L95.955,168.421
		z"/>
	<path style="fill:#F9DD53;" d="M114.595,73.271c11.4,0,20.65,9.24,20.65,20.65c0,11.4-9.25,20.65-20.65,20.65
		c-11.41,0-20.65-9.25-20.65-20.65C93.945,82.511,103.185,73.271,114.595,73.271z"/>
	<path style="fill:#666666;" d="M267.075,45.761c-50.58-50.58-127.47-59.23-187.04-25.94c-12.29,6.87-23.84,15.51-34.27,25.94
		c-61.02,61.02-61.02,160.3,0,221.32c58.52,58.52,152.24,60.91,213.64,7.18c2.62-2.29,5.18-4.69,7.67-7.18
		c2.5-2.5,4.89-5.06,7.18-7.68c5.71-6.53,10.79-13.42,15.23-20.59C326.855,178.481,319.375,98.061,267.075,45.761z M275.325,217.171
		c-4.3,8.4-9.46,16.28-15.38,23.53c-24.47,30.04-61.76,49.21-103.52,49.21c-19.52,0-38.06-4.19-54.77-11.72
		c-23.14-10.41-42.77-27.23-56.64-48.2c-13.96-21.09-22.09-46.38-22.09-73.57c0-43.9,21.19-82.85,53.9-107.17
		c22.23-16.54,49.77-26.32,79.6-26.32c73.72,0,133.49,59.76,133.49,133.49C289.915,178.301,284.655,198.951,275.325,217.171z"/>
	<path style="opacity:0.56;fill:#808080;enable-background:new    ;" d="M415.315,415.321c-11.13,11.12-29.17,11.12-40.3,0
		l-47.79-128.4l88.09,88.09C426.445,386.141,426.445,404.191,415.315,415.321z"/>
	<path style="opacity:0.23;fill:#F2F2F2;enable-background:new    ;" d="M261.44,240.701c-24.47,30.04-61.76,49.21-103.52,49.21
		c-19.52,0-38.06-4.19-54.77-11.72c-23.14-10.41-42.77-27.23-56.64-48.2c-13.96-21.09-22.09-46.38-22.09-73.57
		c0-43.9,21.19-82.85,53.9-107.17c-0.06,1.85-0.09,3.7-0.09,5.56C78.23,156.581,160,239.251,261.44,240.701z"/>
</g>
<g>
</g>
<g>
</g>
<g>
</g>
<g>
</g>
<g>
</g>
<g>
</g>
<g>
</g>
<g>
</g>
<g>
</g>
<g>
</g>
<g>
</g>
<g>
</g>
<g>
</g>
<g>
</g>
<g>
</g>
</svg>
